<svg width="4096" height="4096" viewBox="0 0 4096 4096" fill="none" xmlns="http://www.w3.org/2000/svg">
<rect width="4096" height="4096" rx="1000" fill="url(#paint0_linear_173_2)"/>
<path d="M989.479 3312L902.969 3089.84H861.511L775 3312H816.463L882.24 3131.32L948.016 3312H989.479Z" fill="white"/>
<path d="M1108.07 3089.84V3312H1149.56L1149.57 3152.05L1281.06 3312V3249.78L1149.57 3089.84H1108.07Z" fill="white"/>
<path d="M1281.06 3089.84V3249.78V3312H1322.55L1322.55 3089.84H1281.06Z" fill="white"/>
<path d="M1655.63 3202.18C1655.63 3140.13 1605.36 3089.84 1543.34 3089.84H1441.15V3131.32H1544.6C1583.02 3131.32 1614.17 3162.48 1614.17 3200.92C1614.17 3239.36 1583.02 3270.52 1544.6 3270.52H1441.15V3312H1545.86C1606.49 3312 1655.63 3262.83 1655.63 3202.18Z" fill="white"/>
<path d="M1988.7 3312H1947.25L1876.59 3214.27H1815.68L1815.69 3312H1774.22V3172.79H1926.52C1937.96 3172.79 1947.25 3163.51 1947.25 3152.05C1947.25 3140.6 1937.96 3131.32 1926.52 3131.32H1774.22V3089.84H1925.62C1960.46 3089.84 1988.7 3118.09 1988.7 3152.95C1988.7 3186.82 1961.26 3214.27 1927.41 3214.27H1918.05L1988.7 3312Z" fill="white"/>
<path d="M2107.3 3089.84H2321.78V3135.28H2107.3V3089.84Z" fill="white"/>
<path d="M2175.43 3068.77L2240.16 3004H2304.39L2239.66 3068.77H2175.43Z" fill="white"/>
<path d="M2107.3 3264.03H2321.78V3312H2107.3V3264.03Z" fill="white"/>
<path d="M2107.3 3175.67H2280.32V3223.64H2107.3V3175.67Z" fill="white"/>
<path d="M2654.85 3202.18C2654.85 3140.13 2604.58 3089.84 2542.57 3089.84H2440.37V3131.32H2543.83C2582.25 3131.32 2613.39 3162.48 2613.39 3200.92C2613.39 3239.36 2582.25 3270.52 2543.83 3270.52H2440.37V3312H2545.09C2605.71 3312 2654.85 3262.83 2654.85 3202.18Z" fill="white"/>
<path d="M2773.45 3089.84H2987.93V3135.28H2773.45V3089.84Z" fill="white"/>
<path d="M2773.45 3264.03H2987.93V3312H2773.45V3264.03Z" fill="white"/>
<path d="M2773.45 3175.67H2946.47V3223.64H2773.45V3175.67Z" fill="white"/>
<path d="M3234.38 3312H3193.14L3106.52 3089.84H3147.98L3213.76 3259.55L3279.54 3089.84H3321L3234.38 3312Z" fill="white"/>
<path d="M1522.87 2292.08C1547.57 2291.97 1572.34 2291.15 1597.15 2289.62C1740.95 2280.78 1885.83 2247.63 2023.56 2190.4C2034.47 2185.78 2045.38 2181.15 2056.29 2176.53C2314.15 2069.53 2549.07 1886.9 2722.49 1648.5L2773.11 1578.94C2789.41 1556.54 2805.72 1534.13 2822.02 1511.73C2810.31 1536.84 2798.61 1561.96 2786.91 1587.07C2774.79 1613.06 2762.68 1639.05 2750.57 1665.05C2623.76 1937.42 2417.06 2181.16 2153.92 2356.29C2144.1 2362.92 2134.28 2369.55 2124.46 2376.19C1981.21 2471.65 1819.85 2544.57 1648.42 2589.53C1618.86 2597.29 1542.66 2606 1508.86 2606L1522.87 2292.08Z" fill="white"/>
<path d="M2217.91 784L2595.57 1754.41C2522.76 1835.41 2442.23 1907.94 2356.08 1970.92L2048 1124.18L1508.86 2606H1169L1878.1 784H2217.91Z" fill="white"/>
<path d="M2927 2606H2587.14L2429.61 2173.03C2513.77 2090.01 2588.74 1999.19 2653.28 1902.69L2927 2606Z" fill="white"/>
<defs>
<linearGradient id="paint0_linear_173_2" x1="2048" y1="0" x2="2048" y2="4096" gradientUnits="userSpaceOnUse">
<stop stop-color="#2563EB"/>
<stop offset="1"/>
</linearGradient>
</defs>
</svg>
